HIERARCHY
ROOT mixamorig:Hips
{
	OFFSET 0.000000 92.554863 4.552500
	CHANNELS 6 Xposition Yposition Zposition Xrotation Yrotation Zrotation
	JOINT mixamorig:Spine
	{
		OFFSET -0.000000 10.763863 1.243516
		CHANNELS 6 Xposition Yposition Zposition Xrotation Yrotation Zrotation
		JOINT mixamorig:Spine1
		{
			OFFSET -0.018927 13.061340 0.227481
			CHANNELS 3 Xrotation Yrotation Zrotation
			JOINT mixamorig:Spine2
			{
				OFFSET -0.021630 12.988235 -0.916687
				CHANNELS 3 Xrotation Yrotation Zrotation
				JOINT mixamorig:Neck
				{
					OFFSET -0.011927 24.670639 2.028102
					CHANNELS 6 Xposition Yposition Zposition Xrotation Yrotation Zrotation
					JOINT mixamorig:Head
					{
						OFFSET 0.000000 8.817322 6.102616
						CHANNELS 6 Xposition Yposition Zposition Xrotation Yrotation Zrotation
						JOINT mixamorig:HeadTop_End
						{
							OFFSET 0.000000 20.493942 -0.282504
							CHANNELS 6 Xposition Yposition Zposition Xrotation Yrotation Zrotation
							End Site
							{
								OFFSET 0.000000 20.495895 0.000000
							}
						}
					}
				}
				JOINT mixamorig:LeftShoulder
				{
					OFFSET 9.553568 16.065369 -5.227831
					CHANNELS 6 Xposition Yposition Zposition Xrotation Yrotation Zrotation
					JOINT mixamorig:LeftArm
					{
						OFFSET 17.892986 2.066071 -0.922930
						CHANNELS 3 Xrotation Yrotation Zrotation
						JOINT mixamorig:LeftForeArm
						{
							OFFSET 26.374779 -0.000107 -1.459064
							CHANNELS 3 Xrotation Yrotation Zrotation
							JOINT mixamorig:LeftHand
							{
								OFFSET 26.753433 0.000351 0.000018
								CHANNELS 3 Xrotation Yrotation Zrotation
								End Site
								{
									OFFSET 26.753433 0.000381 0.000018
								}
							}
						}
					}
				}
				JOINT mixamorig:RightShoulder
				{
					OFFSET -9.553568 16.065369 -5.227831
					CHANNELS 6 Xposition Yposition Zposition Xrotation Yrotation Zrotation
					JOINT mixamorig:RightArm
					{
						OFFSET -17.811882 2.066254 -0.922929
						CHANNELS 3 Xrotation Yrotation Zrotation
						JOINT mixamorig:RightForeArm
						{
							OFFSET -26.374771 -0.000290 -1.459066
							CHANNELS 3 Xrotation Yrotation Zrotation
							JOINT mixamorig:RightHand
							{
								OFFSET -26.753433 0.000351 0.000016
								CHANNELS 3 Xrotation Yrotation Zrotation
								JOINT mixamorig:RightHandIndex1
								{
									OFFSET -18.447754 1.479904 8.654251
									CHANNELS 6 Xposition Yposition Zposition Xrotation Yrotation Zrotation
									JOINT mixamorig:RightHandIndex2
									{
										OFFSET -7.514389 0.000000 0.000002
										CHANNELS 3 Xrotation Yrotation Zrotation
										JOINT mixamorig:RightHandIndex3
										{
											OFFSET -7.489372 0.000000 -0.000002
											CHANNELS 3 Xrotation Yrotation Zrotation
											JOINT mixamorig:RightHandIndex4
											{
												OFFSET -6.738792 -0.612457 0.206174
												CHANNELS 3 Xrotation Yrotation Zrotation
												End Site
												{
													OFFSET -6.738785 -0.612457 0.206174
												}
											}
										}
									}
								}
								JOINT mixamorig:RightHandPinky1
								{
									OFFSET -17.507767 -0.477722 -10.003080
									CHANNELS 6 Xposition Yposition Zposition Xrotation Yrotation Zrotation
									JOINT mixamorig:RightHandPinky2
									{
										OFFSET -7.044235 0.000000 0.000000
										CHANNELS 3 Xrotation Yrotation Zrotation
										JOINT mixamorig:RightHandPinky3
										{
											OFFSET -7.078896 0.000000 0.000000
											CHANNELS 3 Xrotation Yrotation Zrotation
											JOINT mixamorig:RightHandPinky4
											{
												OFFSET -7.092957 0.000000 0.000000
												CHANNELS 3 Xrotation Yrotation Zrotation
												End Site
												{
													OFFSET -7.092957 0.000000 0.000000
												}
											}
										}
									}
								}
								JOINT mixamorig:RightHandThumb1
								{
									OFFSET -2.492340 -4.446335 6.163477
									CHANNELS 6 Xposition Yposition Zposition Xrotation Yrotation Zrotation
									JOINT mixamorig:RightHandThumb2
									{
										OFFSET -6.602646 -4.313995 6.890454
										CHANNELS 3 Xrotation Yrotation Zrotation
										JOINT mixamorig:RightHandThumb3
										{
											OFFSET -6.784767 -2.966904 4.170526
											CHANNELS 3 Xrotation Yrotation Zrotation
											JOINT mixamorig:RightHandThumb4
											{
												OFFSET -7.130669 -2.033752 3.069632
												CHANNELS 3 Xrotation Yrotation Zrotation
												End Site
												{
													OFFSET -7.130661 -2.033768 3.069639
												}
											}
										}
									}
								}
							}
						}
					}
				}
			}
		}
	}
	JOINT mixamorig:LeftUpLeg
	{
		OFFSET 13.655973 -7.135239 0.129696
		CHANNELS 6 Xposition Yposition Zposition Xrotation Yrotation Zrotation
		JOINT mixamorig:LeftLeg
		{
			OFFSET 0.000027 -35.919132 1.481440
			CHANNELS 3 Xrotation Yrotation Zrotation
			JOINT mixamorig:LeftFoot
			{
				OFFSET 0.000000 -34.307392 -2.646744
				CHANNELS 3 Xrotation Yrotation Zrotation
				JOINT mixamorig:LeftToeBase
				{
					OFFSET -0.000001 -15.192882 14.911592
					CHANNELS 6 Xposition Yposition Zposition Xrotation Yrotation Zrotation
					JOINT mixamorig:LeftToe_End
					{
						OFFSET 0.000001 0.000000 16.883829
						CHANNELS 6 Xposition Yposition Zposition Xrotation Yrotation Zrotation
						End Site
						{
							OFFSET 0.000000 -0.000001 16.883827
						}
					}
				}
			}
		}
	}
	JOINT mixamorig:RightUpLeg
	{
		OFFSET -13.655973 -7.135239 0.129696
		CHANNELS 6 Xposition Yposition Zposition Xrotation Yrotation Zrotation
		JOINT mixamorig:RightLeg
		{
			OFFSET -0.000027 -35.919132 1.481440
			CHANNELS 3 Xrotation Yrotation Zrotation
			JOINT mixamorig:RightFoot
			{
				OFFSET 0.000001 -34.307392 -2.646745
				CHANNELS 3 Xrotation Yrotation Zrotation
				JOINT mixamorig:RightToeBase
				{
					OFFSET -0.000001 -15.192882 14.911592
					CHANNELS 6 Xposition Yposition Zposition Xrotation Yrotation Zrotation
					JOINT mixamorig:RightToe_End
					{
						OFFSET 0.000001 0.000000 16.883829
						CHANNELS 6 Xposition Yposition Zposition Xrotation Yrotation Zrotation
						End Site
						{
							OFFSET 0.000000 -0.000001 16.883827
						}
					}
				}
			}
		}
	}
}
MOTION
Frames: 5
Frame Time: 0.033333
15.645601 75.864113 6.466047 -5.611888 11.404550 4.746797 0.000003 10.763876 1.243517 -0.143762 -18.776822 -1.080571 4.964752 -17.409823 4.300818 4.890759 -17.482339 3.989578 -0.011928 24.670713 2.028100 5.542174 7.196650 -8.022530 0.000003 8.817323 6.102614 -0.181055 34.135667 -15.446244 0.000002 20.493942 -0.282508 0.000000 -0.000000 -0.000000 9.553573 16.065382 -5.227833 9.929850 -27.857709 6.494528 -24.441759 -73.294685 -20.515131 -0.002024 -85.914299 -0.002812 0.000000 0.000002 0.000000 -9.553573 16.065348 -5.227833 3.422878 12.225479 4.359063 41.426402 26.807845 64.312330 -0.000942 61.965115 0.001847 -81.390597 -9.906670 -34.608743 -18.447758 1.479894 8.654256 -2.333571 30.896016 26.191718 0.358648 -0.957168 41.078175 0.861196 -2.247031 21.320562 -0.000002 0.000001 0.000001 -17.507805 -0.477706 -10.003087 3.014728 21.617494 31.981640 0.380076 -0.981256 42.345715 0.398163 -1.000714 43.390826 -0.000000 -0.000001 0.000001 -2.492344 -4.446322 6.163464 0.927721 1.190512 -13.301992 -9.728851 -5.618110 18.694745 7.907719 -19.045006 0.722805 -0.000004 0.000000 0.000002 13.655979 -7.135220 0.129701 8.430355 24.817583 3.979202 51.664077 12.406597 7.447433 -45.489681 8.702948 -14.491064 0.000002 -15.192876 14.911595 -8.926159 0.000054 0.000014 -0.000007 -0.000001 16.883825 -0.000000 0.000001 0.000001 -13.655974 -7.135242 0.129698 -41.517322 13.544628 -16.042815 58.720605 5.350361 -2.553157 -10.206673 -2.794452 18.642127 0.000002 -15.192876 14.911591 -0.000032 -0.000002 0.000000 0.000003 -0.000001 16.883829 -0.000001 -0.000000 -0.000000 
13.932338 79.907265 6.294565 -2.545986 32.585583 4.614454 -0.000000 10.763878 1.243515 -1.130875 -15.940150 -2.184923 2.666382 -14.968348 3.669812 2.719921 -14.987066 3.540311 -0.011931 24.670698 2.028100 6.538634 4.682163 -6.171626 -0.000003 8.817295 6.102617 -2.087404 20.951170 -7.537918 -0.000001 20.493927 -0.282505 -0.000000 0.000001 0.000001 9.553578 16.065378 -5.227834 8.867739 -24.893895 7.036670 -18.591283 -61.739063 -17.773530 0.006953 -91.255098 0.006312 -0.000001 -0.000001 0.000000 -9.553575 16.065363 -5.227836 3.462219 12.512221 4.945492 47.118005 26.681526 63.923228 -0.001042 62.789779 0.001887 -79.794559 -14.502580 -33.482496 -18.447765 1.479936 8.654255 -2.333565 30.896006 26.191709 0.358645 -0.957166 41.078175 0.861199 -2.247034 21.320564 0.000000 -0.000004 -0.000000 -17.507820 -0.477691 -10.003077 3.014726 21.617497 31.981640 0.380078 -0.981260 42.345711 0.398164 -1.000718 43.390829 -0.000001 -0.000002 0.000001 -2.492355 -4.446341 6.163473 0.927721 1.190517 -13.301991 -9.728853 -5.618108 18.694749 7.907717 -19.045002 0.722809 -0.000001 -0.000000 0.000003 13.655975 -7.135237 0.129691 -4.949226 16.143360 10.156641 50.298650 1.763709 8.737379 -37.334470 4.627972 -12.048131 -0.000003 -15.192875 14.911600 -9.866954 0.000029 0.000009 0.000002 0.000000 16.883821 -0.000000 -0.000002 -0.000001 -13.655975 -7.135230 0.129691 -31.198064 6.394588 -25.192936 50.522667 -6.266588 0.396940 -10.433039 -3.370934 22.138697 -0.000004 -15.192878 14.911588 -0.000026 0.000003 0.000010 -0.000003 -0.000001 16.883825 -0.000001 0.000000 0.000000 
12.106464 82.526581 5.850023 2.069697 51.756752 2.476928 -0.000001 10.763883 1.243517 -0.750530 -12.491034 -2.173121 1.773015 -11.791311 2.365092 1.861608 -11.783692 2.356146 -0.011927 24.670643 2.028100 5.555224 1.621423 -4.238049 0.000002 8.817310 6.102613 -6.459342 4.350103 -0.452898 0.000001 20.493942 -0.282507 -0.000001 0.000002 -0.000000 9.553566 16.065355 -5.227830 8.389334 -23.150346 9.066707 -15.834906 -50.384195 -15.093886 -0.001067 -82.679536 -0.001860 0.000001 0.000004 0.000000 -9.553570 16.065378 -5.227831 3.437146 12.438128 5.230400 51.259340 23.460610 62.145064 -0.001186 64.654523 0.002080 -74.853778 -24.421195 -38.376804 -18.447788 1.479913 8.654267 -2.333571 30.896016 26.191709 0.358649 -0.957168 41.078172 0.861198 -2.247033 21.320567 0.000000 0.000000 0.000002 -17.507790 -0.477695 -10.003078 3.014727 21.617487 31.981633 0.380075 -0.981256 42.345711 0.398161 -1.000713 43.390836 -0.000001 0.000000 -0.000005 -2.492356 -4.446328 6.163476 0.927718 1.190514 -13.301991 -9.728851 -5.618108 18.694750 7.907722 -19.045013 0.722809 0.000003 -0.000003 0.000000 13.655978 -7.135227 0.129693 -17.385403 9.304624 11.925148 47.953303 -8.952927 9.083585 -26.287055 0.945819 -13.016669 -0.000006 -15.192878 14.911592 -11.929684 0.000039 0.000017 0.000004 -0.000001 16.883837 0.000000 0.000001 0.000000 -13.655980 -7.135231 0.129694 -23.519352 0.434009 -29.766077 44.008586 -8.135147 3.313212 -9.316982 -14.759270 23.641674 -0.000000 -15.192876 14.911589 -0.944250 0.000005 -0.000003 0.000000 -0.000001 16.883825 -0.000001 -0.000001 0.000000 
10.179342 83.642113 4.990712 7.276334 64.097077 -1.087640 -0.000001 10.763896 1.243514 0.618878 -8.822269 -1.374969 2.324036 -8.353290 1.197083 2.395834 -8.335319 1.209159 -0.011933 24.670637 2.028101 3.345816 -1.322083 -3.002364 -0.000002 8.817314 6.102614 -6.967449 -10.971634 2.522383 -0.000001 20.493927 -0.282507 0.000000 0.000000 0.000000 9.553574 16.065342 -5.227831 7.353184 -20.078535 10.362701 -12.261399 -48.677764 -10.202523 -0.000273 -59.040230 -0.001076 -0.000000 -0.000000 -0.000001 -9.553569 16.065357 -5.227837 3.652162 13.048242 2.854968 55.872737 22.884793 55.725246 -0.001076 64.364151 0.001952 -76.839089 -37.119923 -47.502764 -18.447773 1.479894 8.654250 -2.333571 30.896012 26.191708 0.358651 -0.957164 41.078175 0.861197 -2.247037 21.320562 -0.000004 0.000003 0.000002 -17.507790 -0.477704 -10.003078 3.014722 21.617497 31.981647 0.380074 -0.981260 42.345711 0.398170 -1.000715 43.390850 -0.000000 0.000000 -0.000000 -2.492337 -4.446346 6.163452 0.927713 1.190513 -13.301986 -9.728851 -5.618108 18.694750 7.907719 -19.045007 0.722805 0.000004 -0.000007 0.000002 13.655977 -7.135221 0.129692 -25.860413 8.999573 10.660352 43.898821 -8.910230 10.404176 -17.027448 -8.554235 -17.314524 -0.000003 -15.192874 14.911596 -10.599111 0.000018 0.000007 -0.000006 -0.000000 16.883825 -0.000000 0.000003 0.000000 -13.655983 -7.135216 0.129695 -20.043834 -2.365502 -31.360281 41.356502 -8.170785 4.750353 -7.673395 -25.325138 24.658311 -0.000003 -15.192883 14.911597 -2.233429 -0.000020 0.000002 0.000001 -0.000001 16.883833 -0.000001 -0.000000 0.000000 
8.301442 84.144585 4.796215 10.669729 69.635158 -1.806064 0.000004 10.763884 1.243517 1.606976 -6.289050 -1.590028 2.739982 -5.986798 -0.096487 2.804597 -5.959700 -0.092759 -0.011929 24.670610 2.028102 3.278158 -2.973475 -3.013454 0.000002 8.817313 6.102619 -5.805775 -19.908803 4.063271 -0.000003 20.493958 -0.282506 0.000002 0.000001 -0.000000 9.553574 16.065369 -5.227839 7.966168 -21.248203 13.046678 -8.324534 -44.435421 -5.188794 -0.000099 -33.860635 -0.000939 -0.000001 -0.000004 0.000001 -9.553568 16.065374 -5.227827 3.941795 13.575260 -1.354528 54.424091 17.194595 49.941961 -0.000932 60.766417 0.001812 -74.715986 -34.308744 -57.893851 -18.447758 1.479913 8.654255 -2.333570 30.896016 26.191708 0.358652 -0.957164 41.078182 0.861191 -2.247032 21.320569 0.000001 0.000002 -0.000001 -17.507797 -0.477720 -10.003075 3.014715 21.617492 31.981654 0.380073 -0.981257 42.345721 0.398153 -1.000713 43.390843 -0.000003 -0.000003 -0.000000 -2.492333 -4.446321 6.163473 0.927723 1.190514 -13.301991 -9.728848 -5.618111 18.694745 7.907723 -19.045006 0.722806 -0.000001 -0.000002 0.000002 13.655981 -7.135216 0.129689 -27.911512 11.466761 7.775348 38.882956 -8.778509 10.281083 -11.277986 -12.681697 -17.050830 -0.000009 -15.192877 14.911586 -11.952368 -0.000001 0.000011 -0.000006 -0.000001 16.883833 0.000000 -0.000002 -0.000000 -13.655971 -7.135226 0.129697 -22.002249 -5.150178 -34.130216 42.429808 -7.539917 3.663185 -6.765112 -29.316654 25.636080 0.000006 -15.192876 14.911587 -0.016778 0.000001 -0.000001 -0.000001 -0.000001 16.883829 -0.000001 -0.000001 -0.000000 
